<?xml version="1.0" encoding="UTF-8" standalone="no"?>
<!DOCTYPE svg PUBLIC "-//W3C//DTD SVG 1.1//EN"
 "http://www.w3.org/Graphics/SVG/1.1/DTD/svg11.dtd">
<!-- Generated by graphviz version 2.38.0 (20140413.2041)
 -->
<!-- Title: %3 Pages: 1 -->
<svg width="131pt" height="288pt"
 viewBox="0.00 0.00 130.71 288.15" xmlns="http://www.w3.org/2000/svg" xmlns:xlink="http://www.w3.org/1999/xlink">
<g id="graph0" class="graph" transform="scale(1 1) rotate(0) translate(4 284.149)">
<title>%3</title>
<polygon fill="white" stroke="none" points="-4,4 -4,-284.149 126.713,-284.149 126.713,4 -4,4"/>
<!-- A -->
<g id="node1" class="node"><title>A</title>
<polygon fill="lightgray" stroke="black" points="56.7132,-280.149 33.7132,-280.149 33.7132,-262.149 56.7132,-262.149 56.7132,-280.149"/>
<text text-anchor="middle" x="45.2132" y="-268.949" font-family="Times New Roman,serif" font-size="9.00">A</text>
</g>
<!-- 10 -->
<g id="node4" class="node"><title>10</title>
<ellipse fill="white" stroke="black" cx="67.2132" cy="-129.338" rx="18.2703" ry="18.2703"/>
<text text-anchor="middle" x="67.2132" y="-127.138" font-family="Times New Roman,serif" font-size="9.00">10</text>
</g>
<!-- A&#45;&gt;10 -->
<g id="edge2" class="edge"><title>A&#45;&gt;10</title>
<path fill="none" stroke="green" stroke-width="1.01718" stroke-dasharray="1,5" d="M46.5235,-261.822C49.6817,-241.752 57.8274,-189.985 62.905,-157.717"/>
<polygon fill="green" stroke="green" stroke-width="1.01718" points="66.4006,-158.018 64.4976,-147.596 59.4857,-156.93 66.4006,-158.018"/>
</g>
<!-- 147 -->
<g id="node5" class="node"><title>147</title>
<ellipse fill="white" stroke="black" cx="21.2132" cy="-204.936" rx="21.4286" ry="21.4286"/>
<text text-anchor="middle" x="21.2132" y="-202.736" font-family="Times New Roman,serif" font-size="9.00">147</text>
</g>
<!-- A&#45;&gt;147 -->
<g id="edge4" class="edge"><title>A&#45;&gt;147</title>
<path fill="none" stroke="green" stroke-width="0.631776" d="M42.1736,-262.017C39.5545,-255.009 35.6124,-244.462 31.8512,-234.399"/>
<polygon fill="green" stroke="green" stroke-width="0.631776" points="35.1291,-233.171 28.3495,-225.03 28.5721,-235.622 35.1291,-233.171"/>
</g>
<!-- B -->
<g id="node2" class="node"><title>B</title>
<polygon fill="lightgray" stroke="black" points="122.713,-213.936 99.7132,-213.936 99.7132,-195.936 122.713,-195.936 122.713,-213.936"/>
<text text-anchor="middle" x="111.213" y="-202.736" font-family="Times New Roman,serif" font-size="9.00">B</text>
</g>
<!-- A XOR B -->
<g id="node3" class="node"><title>A XOR B</title>
<ellipse fill="lightblue" stroke="black" cx="67.2132" cy="-37.4767" rx="37.4533" ry="37.4533"/>
<text text-anchor="middle" x="67.2132" y="-35.2767" font-family="Times New Roman,serif" font-size="9.00">A XOR B</text>
</g>
<!-- B&#45;&gt;A XOR B -->
<g id="edge3" class="edge"><title>B&#45;&gt;A XOR B</title>
<path fill="none" stroke="green" stroke-width="0.231995" d="M110.225,-195.869C108.126,-179.606 102.709,-141.805 94.2132,-110.953 91.5938,-101.441 88.2538,-91.419 84.8226,-81.9628"/>
<polygon fill="green" stroke="green" stroke-width="0.231995" points="88.0144,-80.5049 81.2403,-72.3586 81.4558,-82.9513 88.0144,-80.5049"/>
</g>
<!-- B&#45;&gt;10 -->
<g id="edge7" class="edge"><title>B&#45;&gt;10</title>
<path fill="none" stroke="red" stroke-width="0.477227" d="M106.336,-195.779C100.389,-185.831 90.0742,-168.577 81.5284,-154.283"/>
<polygon fill="red" stroke="red" stroke-width="0.477227" points="84.3672,-152.21 76.2317,-145.423 78.359,-155.802 84.3672,-152.21"/>
</g>
<!-- 10&#45;&gt;A XOR B -->
<g id="edge5" class="edge"><title>10&#45;&gt;A XOR B</title>
<path fill="none" stroke="green" stroke-width="0.59155" d="M67.2132,-110.584C67.2132,-103.226 67.2132,-94.3101 67.2132,-85.2927"/>
<polygon fill="green" stroke="green" stroke-width="0.59155" points="70.7133,-85.1462 67.2132,-75.1462 63.7133,-85.1463 70.7133,-85.1462"/>
</g>
<!-- 147&#45;&gt;A XOR B -->
<g id="edge1" class="edge"><title>147&#45;&gt;A XOR B</title>
<path fill="none" stroke="red" stroke-width="0.378932" d="M24.4045,-183.767C27.626,-164.785 33.1326,-135.662 40.2132,-110.953 42.9311,-101.469 46.313,-91.4584 49.754,-82.005"/>
<polygon fill="red" stroke="red" stroke-width="0.378932" points="53.1208,-82.9933 53.3358,-72.4007 46.5621,-80.5473 53.1208,-82.9933"/>
</g>
<!-- 147&#45;&gt;10 -->
<g id="edge6" class="edge"><title>147&#45;&gt;10</title>
<path fill="none" stroke="green" stroke-width="0.559617" d="M32.1146,-186.494C38.1148,-176.894 45.6507,-164.837 52.2001,-154.358"/>
<polygon fill="green" stroke="green" stroke-width="0.559617" points="55.3062,-155.992 57.6383,-145.657 49.3702,-152.282 55.3062,-155.992"/>
</g>
</g>
</svg>
